<mxfile host="app.diagrams.net" modified="2021-09-01T21:52:01.981Z" agent="5.0 (Windows NT 10.0; Win64; x64) AppleWebKit/537.36 (KHTML, like Gecko) Chrome/92.0.4515.159 Safari/537.36" etag="pG0L3GlxGBSKXBWOwbW2" version="14.9.8" type="github">
  <diagram name="Page-1" id="19d8dcba-68ad-dc05-1034-9cf7b2a963f6">
    <mxGraphModel dx="2480" dy="1506" grid="1" gridSize="8" guides="1" tooltips="1" connect="1" arrows="1" fold="1" page="1" pageScale="1" pageWidth="1100" pageHeight="850" background="#F1FAEE" math="0" shadow="0">
      <root>
        <mxCell id="0" />
        <mxCell id="1" parent="0" />
        <mxCell id="218ae93e1282097f-42" value="" style="edgeStyle=orthogonalEdgeStyle;rounded=1;html=1;labelBackgroundColor=none;endArrow=block;endFill=1;strokeColor=#457B9D;strokeWidth=2;fontFamily=Verdana;fontSize=12;fontStyle=1;fontColor=#1D3557;" parent="1" edge="1">
          <mxGeometry relative="1" as="geometry">
            <mxPoint x="1032.571428571429" y="114" as="sourcePoint" />
            <mxPoint x="1024.6" y="240" as="targetPoint" />
          </mxGeometry>
        </mxCell>
        <mxCell id="218ae93e1282097f-43" value="" style="edgeStyle=orthogonalEdgeStyle;rounded=1;html=1;labelBackgroundColor=none;endArrow=block;endFill=1;strokeColor=#457B9D;strokeWidth=2;fontFamily=Verdana;fontSize=12;fontStyle=1;fontColor=#1D3557;" parent="1" target="6257edae8c83ed4a-9" edge="1">
          <mxGeometry relative="1" as="geometry">
            <mxPoint x="933.5" y="89" as="sourcePoint" />
          </mxGeometry>
        </mxCell>
        <mxCell id="218ae93e1282097f-44" value="" style="edgeStyle=orthogonalEdgeStyle;rounded=1;html=1;labelBackgroundColor=none;endArrow=block;endFill=1;strokeColor=#457B9D;strokeWidth=2;fontFamily=Verdana;fontSize=12;fontStyle=1;fontColor=#1D3557;" parent="1" target="218ae93e1282097f-2" edge="1">
          <mxGeometry relative="1" as="geometry">
            <mxPoint x="1133.5" y="89" as="sourcePoint" />
          </mxGeometry>
        </mxCell>
        <mxCell id="6257edae8c83ed4a-9" value="Atlar" style="whiteSpace=wrap;html=1;rounded=1;shadow=0;comic=0;strokeWidth=5;fontFamily=Verdana;align=center;fontSize=28;fontStyle=1;fillColor=#f8cecc;strokeColor=#b85450;" parent="1" vertex="1">
          <mxGeometry x="368" y="236" width="200" height="108" as="geometry" />
        </mxCell>
        <mxCell id="6257edae8c83ed4a-12" value="Kemirgenler" style="whiteSpace=wrap;html=1;rounded=1;shadow=0;comic=0;strokeWidth=5;fontFamily=Verdana;align=center;fontSize=28;fontStyle=1;fillColor=#f8cecc;strokeColor=#b85450;" parent="1" vertex="1">
          <mxGeometry x="862" y="240" width="327" height="108" as="geometry" />
        </mxCell>
        <mxCell id="218ae93e1282097f-2" value="&lt;h5 style=&quot;font-size: 28px;&quot;&gt;Kedigiller&lt;/h5&gt;" style="whiteSpace=wrap;html=1;rounded=1;shadow=0;comic=0;strokeWidth=5;fontFamily=Verdana;align=center;fontSize=28;fontStyle=1;fillColor=#f8cecc;strokeColor=#b85450;" parent="1" vertex="1">
          <mxGeometry x="1424" y="232" width="340" height="116" as="geometry" />
        </mxCell>
        <mxCell id="REWXdWO-nRBNR9K25ZxY-4" value="Hayvanlar" style="text;strokeColor=#d79b00;fillColor=#ffe6cc;html=1;fontSize=31;fontStyle=1;verticalAlign=middle;align=center;rounded=0;sketch=0;strokeWidth=5;" vertex="1" parent="1">
          <mxGeometry x="862" y="24" width="328" height="96" as="geometry" />
        </mxCell>
      </root>
    </mxGraphModel>
  </diagram>
</mxfile>
